<?xml version="1.0" encoding="UTF-8" standalone="no"?>
<!DOCTYPE svg PUBLIC "-//W3C//DTD SVG 1.1//EN"
 "http://www.w3.org/Graphics/SVG/1.1/DTD/svg11.dtd">
<!-- Generated by graphviz version 15.1.0 (20260618.0150)
 -->
<!-- Title: trace_DeppisPqEpochHijack_SL2&#45;AS0&#45;CL0&#45;A1&#45;C1&#45;NB_pq_post_compromise_security&#45;Anchor_step_fold&#45;Send_post_fold&#45;Reveal_root&#45;Reveal_dh&#45;Reveal_dh&#45;split_case_2&#45;c_senc&#45;c_msgK&#45;c_senc&#45;c_aenc&#45;Epoch_pub&#45;c_confirmTag Pages: 1 -->
<svg width="964pt" height="1416pt"
 viewBox="0.00 0.00 964.00 1416.00" xmlns="http://www.w3.org/2000/svg" xmlns:xlink="http://www.w3.org/1999/xlink">
<g id="graph0" class="graph" transform="scale(1 1) rotate(0) translate(4 1411.62)">
<title>trace_DeppisPqEpochHijack_SL2&#45;AS0&#45;CL0&#45;A1&#45;C1&#45;NB_pq_post_compromise_security&#45;Anchor_step_fold&#45;Send_post_fold&#45;Reveal_root&#45;Reveal_dh&#45;Reveal_dh&#45;split_case_2&#45;c_senc&#45;c_msgK&#45;c_senc&#45;c_aenc&#45;Epoch_pub&#45;c_confirmTag</title>
<polygon fill="white" stroke="none" points="-4,4 -4,-1411.62 960,-1411.62 960,4 -4,4"/>
<!-- n0 -->
<g id="node1" class="node">
<title>n0</title>
<ellipse fill="none" stroke="black" cx="112" cy="-179.02" rx="57.45" ry="12.02"/>
<text xml:space="preserve" text-anchor="middle" x="112" y="-175.92" font-family="Helvetica,sans-Serif" font-size="8.00">#k : isend[K( ~m )]</text>
</g>
<!-- n70 -->
<g id="node32" class="node">
<title>n70</title>
<text xml:space="preserve" text-anchor="start" x="45.5" y="-133.25" font-family="Helvetica,sans-Serif" font-size="8.00" fill="#000000">AE1</text>
<text xml:space="preserve" text-anchor="start" x="67" y="-133.25" font-family="Helvetica,sans-Serif" font-size="8.00">=</text>
<text xml:space="preserve" text-anchor="start" x="76.5" y="-133.25" font-family="Helvetica,sans-Serif" font-size="8.00">aenc(ss, pk(~ek))</text>
<text xml:space="preserve" text-anchor="start" x="45.5" y="-119.25" font-family="Helvetica,sans-Serif" font-size="8.00" fill="#000000">CO1</text>
<text xml:space="preserve" text-anchor="start" x="67" y="-119.25" font-family="Helvetica,sans-Serif" font-size="8.00">=</text>
<text xml:space="preserve" text-anchor="start" x="76.5" y="-119.25" font-family="Helvetica,sans-Serif" font-size="8.00">confirmTag(ss, &#39;r&#39;)</text>
<text xml:space="preserve" text-anchor="start" x="45.5" y="-105.25" font-family="Helvetica,sans-Serif" font-size="8.00" fill="#000000">EX1</text>
<text xml:space="preserve" text-anchor="start" x="67" y="-105.25" font-family="Helvetica,sans-Serif" font-size="8.00">=</text>
<text xml:space="preserve" text-anchor="start" x="76.5" y="-105.25" font-family="Helvetica,sans-Serif" font-size="8.00">&#39;g&#39;^(~a*~b)</text>
<text xml:space="preserve" text-anchor="start" x="45.5" y="-91.25" font-family="Helvetica,sans-Serif" font-size="8.00" fill="#000000">KD2</text>
<text xml:space="preserve" text-anchor="start" x="67" y="-91.25" font-family="Helvetica,sans-Serif" font-size="8.00">=</text>
<text xml:space="preserve" text-anchor="start" x="76.5" y="-91.25" font-family="Helvetica,sans-Serif" font-size="8.00">kdfRK(~rkc, EX1)</text>
<text xml:space="preserve" text-anchor="start" x="45.5" y="-77.25" font-family="Helvetica,sans-Serif" font-size="8.00" fill="#000000">KD1</text>
<text xml:space="preserve" text-anchor="start" x="67" y="-77.25" font-family="Helvetica,sans-Serif" font-size="8.00">=</text>
<text xml:space="preserve" text-anchor="start" x="76.5" y="-77.25" font-family="Helvetica,sans-Serif" font-size="8.00">kdfEpoch(KD2, ss)</text>
<text xml:space="preserve" text-anchor="start" x="45.5" y="-63.25" font-family="Helvetica,sans-Serif" font-size="8.00" fill="#000000">MS1</text>
<text xml:space="preserve" text-anchor="start" x="67" y="-63.25" font-family="Helvetica,sans-Serif" font-size="8.00">=</text>
<text xml:space="preserve" text-anchor="start" x="76.5" y="-63.25" font-family="Helvetica,sans-Serif" font-size="8.00">msgK(~rkc)</text>
<text xml:space="preserve" text-anchor="start" x="45.5" y="-49.25" font-family="Helvetica,sans-Serif" font-size="8.00" fill="#000000">SE1</text>
<text xml:space="preserve" text-anchor="start" x="67" y="-49.25" font-family="Helvetica,sans-Serif" font-size="8.00">=</text>
<text xml:space="preserve" text-anchor="start" x="76.5" y="-49.25" font-family="Helvetica,sans-Serif" font-size="8.00">senc(&lt;&#39;ct&#39;, AE1, CO1&gt;, MS1)</text>
<text xml:space="preserve" text-anchor="start" x="45.5" y="-35.25" font-family="Helvetica,sans-Serif" font-size="8.00" fill="#000000">SE2</text>
<text xml:space="preserve" text-anchor="start" x="67" y="-35.25" font-family="Helvetica,sans-Serif" font-size="8.00">=</text>
<text xml:space="preserve" text-anchor="start" x="76.5" y="-35.25" font-family="Helvetica,sans-Serif" font-size="8.00">senc(&#39;commit&#39;, MS1)</text>
<text xml:space="preserve" text-anchor="start" x="45.5" y="-21.25" font-family="Helvetica,sans-Serif" font-size="8.00" fill="#000000">SE3</text>
<text xml:space="preserve" text-anchor="start" x="67" y="-21.25" font-family="Helvetica,sans-Serif" font-size="8.00">=</text>
<text xml:space="preserve" text-anchor="start" x="76.5" y="-21.25" font-family="Helvetica,sans-Serif" font-size="8.00">senc(~m, msgK(KD1))</text>
<text xml:space="preserve" text-anchor="start" x="45.5" y="-7.25" font-family="Helvetica,sans-Serif" font-size="8.00" fill="#000000">SE4</text>
<text xml:space="preserve" text-anchor="start" x="67" y="-7.25" font-family="Helvetica,sans-Serif" font-size="8.00">=</text>
<text xml:space="preserve" text-anchor="start" x="76.5" y="-7.25" font-family="Helvetica,sans-Serif" font-size="8.00">senc(&lt;&#39;pub&#39;, pk(~ek)&gt;, MS1)</text>
<polygon fill="none" stroke="black" points="40.5,0 40.5,-145 183.5,-145 183.5,0 40.5,0"/>
</g>
<!-- n0&#45;&gt;n70 -->
<!-- n5 -->
<g id="node2" class="node">
<title>n5</title>
<polygon fill="#d5d897" stroke="black" points="34.38,-581.87 34.38,-641.87 217.62,-641.87 217.62,-581.87 34.38,-581.87"/>
<text xml:space="preserve" text-anchor="middle" x="85.88" y="-630.27" font-family="Helvetica,sans-Serif" font-size="8.00">St_Post( KD1 )</text>
<polyline fill="none" stroke="black" points="137.38,-624.87 137.38,-641.87"/>
<text xml:space="preserve" text-anchor="middle" x="177.38" y="-630.27" font-family="Helvetica,sans-Serif" font-size="8.00">Fr( ~m )</text>
<polyline fill="none" stroke="black" points="34.38,-624.87 217.62,-624.87"/>
<text xml:space="preserve" text-anchor="start" x="42.38" y="-613.27" font-family="Helvetica,sans-Serif" font-size="8.00">#s : Send_post_fold[PostFoldSend( ~m, KD1 ),</text>
<text xml:space="preserve" text-anchor="start" x="42.38" y="-604.27" font-family="Helvetica,sans-Serif" font-size="8.00">                    SecretMsg( ~m )]</text>
<polyline fill="none" stroke="black" points="34.38,-598.87 217.62,-598.87"/>
<text xml:space="preserve" text-anchor="middle" x="126" y="-587.27" font-family="Helvetica,sans-Serif" font-size="8.00">Out( SE3 )</text>
</g>
<!-- n7 -->
<g id="node4" class="node">
<title>n7</title>
<ellipse fill="none" stroke="black" cx="97" cy="-501.31" rx="34.65" ry="12.02"/>
<text xml:space="preserve" text-anchor="middle" x="97" y="-498.21" font-family="Helvetica,sans-Serif" font-size="8.00">#vl : irecv</text>
</g>
<!-- n5&#45;&gt;n7 -->
<g id="edge1" class="edge">
<title>n5:n4&#45;&gt;n7</title>
<path fill="none" stroke="#4d4d4d" d="M126,-581.37C126,-560.79 117.22,-538.93 109.33,-523.42"/>
<polygon fill="#4d4d4d" stroke="#4d4d4d" points="112.44,-521.82 104.59,-514.69 106.29,-525.15 112.44,-521.82"/>
</g>
<!-- n6 -->
<g id="node3" class="node">
<title>n6</title>
<ellipse fill="none" stroke="black" cx="112" cy="-225.06" rx="69.65" ry="12.02"/>
<text xml:space="preserve" text-anchor="middle" x="112" y="-221.96" font-family="Helvetica,sans-Serif" font-size="8.00">#vk : coerce[!KU( ~m )]</text>
</g>
<!-- n6&#45;&gt;n0 -->
<g id="edge19" class="edge">
<title>n6&#45;&gt;n0</title>
<path fill="none" stroke="red" stroke-dasharray="5,2" d="M112,-212.95C112,-209.74 112,-206.12 112,-202.48"/>
<polygon fill="red" stroke="red" points="115.5,-202.8 112,-192.8 108.5,-202.8 115.5,-202.8"/>
</g>
<!-- n46 -->
<g id="node17" class="node">
<title>n46</title>
<ellipse fill="none" stroke="black" cx="112" cy="-271.1" rx="52.68" ry="12.02"/>
<text xml:space="preserve" text-anchor="middle" x="112" y="-268" font-family="Helvetica,sans-Serif" font-size="8.00">#vr.5 : d_0_sdec</text>
</g>
<!-- n7&#45;&gt;n46 -->
<g id="edge2" class="edge">
<title>n7&#45;&gt;n46</title>
<path fill="none" stroke="#ee4000" d="M85.93,-489.5C70.93,-473.62 46,-442.4 46,-410.23 46,-410.23 46,-410.23 46,-362.19 46,-334.84 52.46,-326.9 69,-305.12 73.41,-299.32 79.08,-294.01 84.86,-289.42"/>
<polygon fill="#ee4000" stroke="#ee4000" points="86.62,-292.46 92.62,-283.73 82.49,-286.82 86.62,-292.46"/>
</g>
<!-- n15 -->
<g id="node5" class="node">
<title>n15</title>
<polygon fill="#cdd998" stroke="black" points="193,-664.87 193,-742.87 439,-742.87 439,-664.87 193,-664.87"/>
<text xml:space="preserve" text-anchor="middle" x="249.5" y="-731.27" font-family="Helvetica,sans-Serif" font-size="8.00">St_Anchor( ~rkc, ss )</text>
<polyline fill="none" stroke="black" points="306,-725.87 306,-742.87"/>
<text xml:space="preserve" text-anchor="middle" x="339.38" y="-731.27" font-family="Helvetica,sans-Serif" font-size="8.00">Fr( ~a )</text>
<polyline fill="none" stroke="black" points="372.75,-725.87 372.75,-742.87"/>
<text xml:space="preserve" text-anchor="middle" x="405.62" y="-731.27" font-family="Helvetica,sans-Serif" font-size="8.00">Fr( ~b )</text>
<polyline fill="none" stroke="black" points="193,-725.87 439,-725.87"/>
<text xml:space="preserve" text-anchor="start" x="201" y="-714.27" font-family="Helvetica,sans-Serif" font-size="8.00">#vr : Anchor_step_fold[AnchorRoot( KD2 ),</text>
<text xml:space="preserve" text-anchor="start" x="201" y="-705.27" font-family="Helvetica,sans-Serif" font-size="8.00">                       Fold( KD2, KD1 ),</text>
<text xml:space="preserve" text-anchor="start" x="201" y="-696.27" font-family="Helvetica,sans-Serif" font-size="8.00">                       FoldedWith( KD1, ss ),</text>
<text xml:space="preserve" text-anchor="start" x="201" y="-687.27" font-family="Helvetica,sans-Serif" font-size="8.00">                       Root( KD1 )]</text>
<polyline fill="none" stroke="black" points="193,-681.87 439,-681.87"/>
<text xml:space="preserve" text-anchor="middle" x="228" y="-670.27" font-family="Helvetica,sans-Serif" font-size="8.00">St_Post( KD1 )</text>
<polyline fill="none" stroke="black" points="263,-664.87 263,-681.87"/>
<text xml:space="preserve" text-anchor="middle" x="307" y="-670.27" font-family="Helvetica,sans-Serif" font-size="8.00">!RevealableDh( ~a )</text>
<polyline fill="none" stroke="black" points="351,-664.87 351,-681.87"/>
<text xml:space="preserve" text-anchor="middle" x="395" y="-670.27" font-family="Helvetica,sans-Serif" font-size="8.00">!RevealableDh( ~b )</text>
</g>
<!-- n15&#45;&gt;n5 -->
<g id="edge3" class="edge">
<title>n15:n12&#45;&gt;n5:n1</title>
<path fill="none" stroke="black" stroke-width="2" d="M192,-673.37C171.08,-673.37 108.83,-668.71 90.81,-652.15"/>
<polygon fill="black" stroke="black" stroke-width="2" points="94.87,-652.43 87.24,-645.08 88.62,-655.58 94.87,-652.43"/>
</g>
<!-- n56 -->
<g id="node21" class="node">
<title>n56</title>
<polygon fill="#a2dd9b" stroke="black" points="239.25,-586.37 239.25,-637.37 376.75,-637.37 376.75,-586.37 239.25,-586.37"/>
<text xml:space="preserve" text-anchor="middle" x="307.75" y="-625.77" font-family="Helvetica,sans-Serif" font-size="8.00">!RevealableDh( ~a )</text>
<polyline fill="none" stroke="black" points="239.25,-620.37 376.75,-620.37"/>
<text xml:space="preserve" text-anchor="middle" x="308" y="-608.77" font-family="Helvetica,sans-Serif" font-size="8.00">#vr.7 : Reveal_dh[RevealDh( ~a )]</text>
<polyline fill="none" stroke="black" points="239.25,-603.37 376.75,-603.37"/>
<text xml:space="preserve" text-anchor="middle" x="307.88" y="-591.77" font-family="Helvetica,sans-Serif" font-size="8.00">Out( ~a )</text>
</g>
<!-- n15&#45;&gt;n56 -->
<g id="edge4" class="edge">
<title>n15:n13&#45;&gt;n56:n53</title>
<path fill="none" stroke="#7f7f7f" stroke-width="2" d="M307,-664.37C307,-657.69 307.25,-653.91 307.46,-649.67"/>
<polygon fill="#7f7f7f" stroke="#7f7f7f" stroke-width="2" points="310.92,-651.49 307.67,-641.4 303.92,-651.31 310.92,-651.49"/>
</g>
<!-- n61 -->
<g id="node23" class="node">
<title>n61</title>
<polygon fill="#a2dd9b" stroke="black" points="399.25,-586.37 399.25,-637.37 536.75,-637.37 536.75,-586.37 399.25,-586.37"/>
<text xml:space="preserve" text-anchor="middle" x="467.75" y="-625.77" font-family="Helvetica,sans-Serif" font-size="8.00">!RevealableDh( ~b )</text>
<polyline fill="none" stroke="black" points="399.25,-620.37 536.75,-620.37"/>
<text xml:space="preserve" text-anchor="middle" x="468" y="-608.77" font-family="Helvetica,sans-Serif" font-size="8.00">#vr.8 : Reveal_dh[RevealDh( ~b )]</text>
<polyline fill="none" stroke="black" points="399.25,-603.37 536.75,-603.37"/>
<text xml:space="preserve" text-anchor="middle" x="467.88" y="-591.77" font-family="Helvetica,sans-Serif" font-size="8.00">Out( ~b )</text>
</g>
<!-- n15&#45;&gt;n61 -->
<g id="edge5" class="edge">
<title>n15:n14&#45;&gt;n61:n58</title>
<path fill="none" stroke="#7f7f7f" stroke-width="2" d="M440,-673.37C444.02,-673.37 441.09,-667.81 439,-664.37 429.6,-648.93 415.39,-653.73 403.94,-638.73"/>
<polygon fill="#7f7f7f" stroke="#7f7f7f" stroke-width="2" points="407.8,-638.4 399.76,-631.5 401.73,-641.91 407.8,-638.4"/>
</g>
<!-- n16 -->
<g id="node6" class="node">
<title>n16</title>
<ellipse fill="none" stroke="black" cx="179" cy="-317.15" rx="99.35" ry="12.02"/>
<text xml:space="preserve" text-anchor="middle" x="179" y="-314.05" font-family="Helvetica,sans-Serif" font-size="8.00">#vk.1 : c_msgK[!KU( msgK(KD1) )]</text>
</g>
<!-- n16&#45;&gt;n46 -->
<g id="edge20" class="edge">
<title>n16&#45;&gt;n46</title>
<path fill="none" stroke="red" stroke-dasharray="5,2" d="M162.09,-305.03C154.71,-300.18 145.88,-294.38 137.71,-289"/>
<polygon fill="red" stroke="red" points="139.75,-286.16 129.47,-283.59 135.91,-292.01 139.75,-286.16"/>
</g>
<!-- n21 -->
<g id="node7" class="node">
<title>n21</title>
<polygon fill="#c5d998" stroke="black" points="171,-765.87 171,-816.87 329,-816.87 329,-765.87 171,-765.87"/>
<text xml:space="preserve" text-anchor="middle" x="225.88" y="-805.27" font-family="Helvetica,sans-Serif" font-size="8.00">St_I_Confirmed( ~rkc, ss )</text>
<polyline fill="none" stroke="black" points="280.75,-799.87 280.75,-816.87"/>
<text xml:space="preserve" text-anchor="middle" x="304.88" y="-805.27" font-family="Helvetica,sans-Serif" font-size="8.00">In( SE2 )</text>
<polyline fill="none" stroke="black" points="171,-799.87 329,-799.87"/>
<text xml:space="preserve" text-anchor="middle" x="249.88" y="-788.27" font-family="Helvetica,sans-Serif" font-size="8.00">#vr.1 : Epoch_commit[Commit( ss )]</text>
<polyline fill="none" stroke="black" points="171,-782.87 329,-782.87"/>
<text xml:space="preserve" text-anchor="middle" x="250" y="-771.27" font-family="Helvetica,sans-Serif" font-size="8.00">St_Anchor( ~rkc, ss )</text>
</g>
<!-- n21&#45;&gt;n15 -->
<g id="edge6" class="edge">
<title>n21:n20&#45;&gt;n15:n8</title>
<path fill="none" stroke="black" stroke-width="2" d="M330,-774.37C334.02,-774.37 331.61,-768.44 329,-765.37 308.38,-741.18 263.74,-769.97 252.24,-754.14"/>
<polygon fill="black" stroke="black" stroke-width="2" points="256.11,-755.13 250.25,-746.31 249.33,-756.86 256.11,-755.13"/>
</g>
<!-- n22 -->
<g id="node8" class="node">
<title>n22</title>
<ellipse fill="none" stroke="black" cx="179" cy="-363.19" rx="89.8" ry="12.02"/>
<text xml:space="preserve" text-anchor="middle" x="179" y="-360.09" font-family="Helvetica,sans-Serif" font-size="8.00">#vk.2 : c_kdfEpoch[!KU( KD1 )]</text>
</g>
<!-- n22&#45;&gt;n16 -->
<g id="edge21" class="edge">
<title>n22&#45;&gt;n16</title>
<path fill="none" stroke="red" stroke-dasharray="5,2" d="M179,-351.07C179,-347.86 179,-344.24 179,-340.6"/>
<polygon fill="red" stroke="red" points="182.5,-340.92 179,-330.92 175.5,-340.92 182.5,-340.92"/>
</g>
<!-- n28 -->
<g id="node9" class="node">
<title>n28</title>
<polygon fill="#beda99" stroke="black" points="170.38,-839.87 170.38,-899.87 453.62,-899.87 453.62,-839.87 170.38,-839.87"/>
<text xml:space="preserve" text-anchor="middle" x="256" y="-888.27" font-family="Helvetica,sans-Serif" font-size="8.00">St_I_PubSent( ~rkc, ~ek )</text>
<polyline fill="none" stroke="black" points="341.62,-882.87 341.62,-899.87"/>
<text xml:space="preserve" text-anchor="middle" x="397.25" y="-888.27" font-family="Helvetica,sans-Serif" font-size="8.00">In( SE1 )</text>
<polyline fill="none" stroke="black" points="170.38,-882.87 453.62,-882.87"/>
<text xml:space="preserve" text-anchor="start" x="178.38" y="-871.27" font-family="Helvetica,sans-Serif" font-size="8.00">#vr.2 : Epoch_decaps_verify[Eq( CO1, CO1 ),</text>
<text xml:space="preserve" text-anchor="start" x="178.38" y="-862.27" font-family="Helvetica,sans-Serif" font-size="8.00">                            IConfirmed( ss )]</text>
<polyline fill="none" stroke="black" points="170.38,-856.87 453.62,-856.87"/>
<text xml:space="preserve" text-anchor="middle" x="225.25" y="-845.27" font-family="Helvetica,sans-Serif" font-size="8.00">St_I_Confirmed( ~rkc, ss )</text>
<polyline fill="none" stroke="black" points="280.12,-839.87 280.12,-856.87"/>
<text xml:space="preserve" text-anchor="middle" x="366.88" y="-845.27" font-family="Helvetica,sans-Serif" font-size="8.00">Out( senc(&lt;&#39;tagi&#39;, confirmTag(ss, &#39;i&#39;)&gt;, MS1) )</text>
</g>
<!-- n28&#45;&gt;n21 -->
<g id="edge7" class="edge">
<title>n28:n26&#45;&gt;n21:n17</title>
<path fill="none" stroke="black" stroke-width="2" d="M225.25,-839.37C225.25,-834.64 225.4,-831.62 225.55,-828.66"/>
<polygon fill="black" stroke="black" stroke-width="2" points="229,-830.5 225.79,-820.4 222,-830.29 229,-830.5"/>
</g>
<!-- n29 -->
<g id="node10" class="node">
<title>n29</title>
<ellipse fill="none" stroke="black" cx="750" cy="-980.44" rx="41.54" ry="12.02"/>
<text xml:space="preserve" text-anchor="middle" x="750" y="-977.34" font-family="Helvetica,sans-Serif" font-size="8.00">#vf.3 : isend</text>
</g>
<!-- n29&#45;&gt;n21 -->
<g id="edge8" class="edge">
<title>n29&#45;&gt;n21:n18</title>
<path fill="none" stroke="#4d4d4d" d="M735.62,-968.74C684.97,-932.11 508.83,-813.73 341.28,-808.55"/>
<polygon fill="#4d4d4d" stroke="#4d4d4d" points="341.57,-805.05 331.51,-808.4 341.46,-812.05 341.57,-805.05"/>
</g>
<!-- n30 -->
<g id="node11" class="node">
<title>n30</title>
<ellipse fill="none" stroke="black" cx="388" cy="-409.23" rx="81.85" ry="12.02"/>
<text xml:space="preserve" text-anchor="middle" x="388" y="-406.13" font-family="Helvetica,sans-Serif" font-size="8.00">#vk.3 : c_kdfRK[!KU( KD2 )]</text>
</g>
<!-- n30&#45;&gt;n22 -->
<g id="edge22" class="edge">
<title>n30&#45;&gt;n22</title>
<path fill="none" stroke="red" stroke-dasharray="5,2" d="M343.16,-398.78C311.91,-392.2 269.96,-383.35 236.28,-376.26"/>
<polygon fill="red" stroke="red" points="237.2,-372.87 226.69,-374.24 235.75,-379.72 237.2,-372.87"/>
</g>
<!-- n36 -->
<g id="node12" class="node">
<title>n36</title>
<polygon fill="#b6db99" stroke="black" points="201.75,-1153.08 201.75,-1204.08 364.25,-1204.08 364.25,-1153.08 201.75,-1153.08"/>
<text xml:space="preserve" text-anchor="middle" x="248.75" y="-1192.48" font-family="Helvetica,sans-Serif" font-size="8.00">St_I_Pre( ~rkc )</text>
<polyline fill="none" stroke="black" points="295.75,-1187.08 295.75,-1204.08"/>
<text xml:space="preserve" text-anchor="middle" x="330" y="-1192.48" font-family="Helvetica,sans-Serif" font-size="8.00">Fr( ~ek )</text>
<polyline fill="none" stroke="black" points="201.75,-1187.08 364.25,-1187.08"/>
<text xml:space="preserve" text-anchor="middle" x="282.75" y="-1175.48" font-family="Helvetica,sans-Serif" font-size="8.00">#vr.3 : Epoch_pub[EpochPub( ~ek )]</text>
<polyline fill="none" stroke="black" points="201.75,-1170.08 364.25,-1170.08"/>
<text xml:space="preserve" text-anchor="middle" x="255.88" y="-1158.48" font-family="Helvetica,sans-Serif" font-size="8.00">St_I_PubSent( ~rkc, ~ek )</text>
<polyline fill="none" stroke="black" points="310,-1153.08 310,-1170.08"/>
<text xml:space="preserve" text-anchor="middle" x="337.12" y="-1158.48" font-family="Helvetica,sans-Serif" font-size="8.00">Out( SE4 )</text>
</g>
<!-- n36&#45;&gt;n28 -->
<g id="edge9" class="edge">
<title>n36:n34&#45;&gt;n28:n23</title>
<path fill="none" stroke="black" stroke-width="2" d="M255.88,-1152.58C255.88,-1117.44 256,-1108.66 256,-1073.52 256,-1073.52 256,-1073.52 256,-979.44 256,-948.42 256,-937.93 256,-911.73"/>
<polygon fill="black" stroke="black" stroke-width="2" points="259.5,-913.4 256,-903.4 252.5,-913.4 259.5,-913.4"/>
</g>
<!-- n63 -->
<g id="node25" class="node">
<title>n63</title>
<ellipse fill="none" stroke="black" cx="627" cy="-1118.56" rx="52.68" ry="12.02"/>
<text xml:space="preserve" text-anchor="middle" x="627" y="-1115.46" font-family="Helvetica,sans-Serif" font-size="8.00">#vr.9 : d_0_sdec</text>
</g>
<!-- n36&#45;&gt;n63 -->
<g id="edge10" class="edge">
<title>n36:n35&#45;&gt;n63</title>
<path fill="none" stroke="#ee4000" d="M365.25,-1161.58C442.7,-1161.58 531.42,-1143.43 583.14,-1130.98"/>
<polygon fill="#ee4000" stroke="#ee4000" points="583.87,-1134.41 592.75,-1128.63 582.2,-1127.61 583.87,-1134.41"/>
</g>
<!-- n37 -->
<g id="node13" class="node">
<title>n37</title>
<ellipse fill="none" stroke="black" cx="466" cy="-934.4" rx="41.54" ry="12.02"/>
<text xml:space="preserve" text-anchor="middle" x="466" y="-931.3" font-family="Helvetica,sans-Serif" font-size="8.00">#vf.4 : isend</text>
</g>
<!-- n37&#45;&gt;n28 -->
<g id="edge11" class="edge">
<title>n37&#45;&gt;n28:n24</title>
<path fill="none" stroke="#4d4d4d" d="M467.21,-921.91C467.63,-913.94 467.27,-903.65 463.61,-897.28"/>
<polygon fill="#4d4d4d" stroke="#4d4d4d" points="465.53,-894.36 455.17,-892.16 461.9,-900.34 465.53,-894.36"/>
</g>
<!-- n38 -->
<g id="node14" class="node">
<title>n38</title>
<ellipse fill="none" stroke="black" cx="388" cy="-455.27" rx="74.95" ry="12.02"/>
<text xml:space="preserve" text-anchor="middle" x="388" y="-452.17" font-family="Helvetica,sans-Serif" font-size="8.00">#vk.4 : c_exp[!KU( EX1 )]</text>
</g>
<!-- n38&#45;&gt;n30 -->
<g id="edge23" class="edge">
<title>n38&#45;&gt;n30</title>
<path fill="none" stroke="red" stroke-dasharray="5,2" d="M388,-443.16C388,-439.95 388,-436.33 388,-432.69"/>
<polygon fill="red" stroke="red" points="391.5,-433.01 388,-423.01 384.5,-433.01 391.5,-433.01"/>
</g>
<!-- n44 -->
<g id="node15" class="node">
<title>n44</title>
<polygon fill="#aedc9a" stroke="black" points="211.75,-1347.12 211.75,-1407.12 462.25,-1407.12 462.25,-1347.12 211.75,-1347.12"/>
<text xml:space="preserve" text-anchor="middle" x="336.62" y="-1395.52" font-family="Helvetica,sans-Serif" font-size="8.00">Fr( ~rkc )</text>
<polyline fill="none" stroke="black" points="211.75,-1390.12 462.25,-1390.12"/>
<text xml:space="preserve" text-anchor="start" x="219.75" y="-1378.52" font-family="Helvetica,sans-Serif" font-size="8.00">#vr.4 : Live_root[LiveRoot( ~rkc ),</text>
<text xml:space="preserve" text-anchor="start" x="219.75" y="-1369.52" font-family="Helvetica,sans-Serif" font-size="8.00">                  Root( ~rkc )]</text>
<polyline fill="none" stroke="black" points="211.75,-1364.12 462.25,-1364.12"/>
<text xml:space="preserve" text-anchor="middle" x="248.25" y="-1352.52" font-family="Helvetica,sans-Serif" font-size="8.00">St_I_Pre( ~rkc )</text>
<polyline fill="none" stroke="black" points="284.75,-1347.12 284.75,-1364.12"/>
<text xml:space="preserve" text-anchor="middle" x="323.12" y="-1352.52" font-family="Helvetica,sans-Serif" font-size="8.00">St_R_Pre( ~rkc )</text>
<polyline fill="none" stroke="black" points="361.5,-1347.12 361.5,-1364.12"/>
<text xml:space="preserve" text-anchor="middle" x="411.88" y="-1352.52" font-family="Helvetica,sans-Serif" font-size="8.00">!RevealableRoot( ~rkc )</text>
</g>
<!-- n44&#45;&gt;n36 -->
<g id="edge12" class="edge">
<title>n44:n41&#45;&gt;n36:n31</title>
<path fill="none" stroke="black" stroke-width="2" d="M248.25,-1346.62C248.25,-1287.44 248.69,-1269.87 248.74,-1215.89"/>
<polygon fill="black" stroke="black" stroke-width="2" points="252.24,-1217.61 248.75,-1207.61 245.24,-1217.61 252.24,-1217.61"/>
</g>
<!-- n51 -->
<g id="node19" class="node">
<title>n51</title>
<polygon fill="#aadc9a" stroke="black" points="334.25,-1273.12 334.25,-1324.12 489.75,-1324.12 489.75,-1273.12 334.25,-1273.12"/>
<text xml:space="preserve" text-anchor="middle" x="411.62" y="-1312.52" font-family="Helvetica,sans-Serif" font-size="8.00">!RevealableRoot( ~rkc )</text>
<polyline fill="none" stroke="black" points="334.25,-1307.12 489.75,-1307.12"/>
<text xml:space="preserve" text-anchor="middle" x="412" y="-1295.52" font-family="Helvetica,sans-Serif" font-size="8.00">#vr.6 : Reveal_root[RevealRoot( ~rkc )]</text>
<polyline fill="none" stroke="black" points="334.25,-1290.12 489.75,-1290.12"/>
<text xml:space="preserve" text-anchor="middle" x="411.88" y="-1278.52" font-family="Helvetica,sans-Serif" font-size="8.00">Out( ~rkc )</text>
</g>
<!-- n44&#45;&gt;n51 -->
<g id="edge13" class="edge">
<title>n44:n43&#45;&gt;n51:n48</title>
<path fill="none" stroke="#7f7f7f" stroke-width="2" d="M411.88,-1346.62C411.88,-1314.13 367.15,-1344.94 340.78,-1323.93"/>
<polygon fill="#7f7f7f" stroke="#7f7f7f" stroke-width="2" points="344.59,-1322.93 335.28,-1317.87 339.4,-1327.63 344.59,-1322.93"/>
</g>
<!-- n45 -->
<g id="node16" class="node">
<title>n45</title>
<ellipse fill="none" stroke="black" cx="732" cy="-1238.6" rx="77.07" ry="12.02"/>
<text xml:space="preserve" text-anchor="middle" x="732" y="-1235.5" font-family="Helvetica,sans-Serif" font-size="8.00">#vk.5 : coerce[!KU( ~rkc )]</text>
</g>
<!-- n45&#45;&gt;n30 -->
<g id="edge24" class="edge">
<title>n45&#45;&gt;n30</title>
<path fill="none" stroke="red" stroke-dasharray="5,2" d="M794.69,-1231.29C860.96,-1220.75 956,-1192.86 956,-1119.56 956,-1119.56 956,-1119.56 956,-500.31 956,-452.11 632.78,-425.37 473.98,-415.14"/>
<polygon fill="red" stroke="red" points="474.55,-411.67 464.35,-414.53 474.11,-418.65 474.55,-411.67"/>
</g>
<!-- n62 -->
<g id="node24" class="node">
<title>n62</title>
<ellipse fill="none" stroke="black" cx="732" cy="-1178.58" rx="81.32" ry="12.02"/>
<text xml:space="preserve" text-anchor="middle" x="732" y="-1175.48" font-family="Helvetica,sans-Serif" font-size="8.00">#vk.9 : c_msgK[!KU( MS1 )]</text>
</g>
<!-- n45&#45;&gt;n62 -->
<g id="edge25" class="edge">
<title>n45&#45;&gt;n62</title>
<path fill="none" stroke="red" stroke-dasharray="5,2" d="M732,-1226.14C732,-1219.39 732,-1210.6 732,-1202.48"/>
<polygon fill="red" stroke="red" points="735.5,-1202.54 732,-1192.54 728.5,-1202.54 735.5,-1202.54"/>
</g>
<!-- n46&#45;&gt;n6 -->
<g id="edge14" class="edge">
<title>n46&#45;&gt;n6</title>
<path fill="none" stroke="#ee4000" d="M112,-258.99C112,-255.78 112,-252.16 112,-248.52"/>
<polygon fill="#ee4000" stroke="#ee4000" points="115.5,-248.84 112,-238.84 108.5,-248.84 115.5,-248.84"/>
</g>
<!-- n47 -->
<g id="node18" class="node">
<title>n47</title>
<ellipse fill="none" stroke="black" cx="304" cy="-547.35" rx="72.83" ry="12.02"/>
<text xml:space="preserve" text-anchor="middle" x="304" y="-544.25" font-family="Helvetica,sans-Serif" font-size="8.00">#vk.6 : coerce[!KU( ~a )]</text>
</g>
<!-- n68 -->
<g id="node30" class="node">
<title>n68</title>
<ellipse fill="none" stroke="gray" cx="388" cy="-501.31" rx="72.83" ry="12.02"/>
<text xml:space="preserve" text-anchor="middle" x="388" y="-498.21" font-family="Helvetica,sans-Serif" font-size="8.00">!KU( (~a*~b) ) @ #vk.14</text>
</g>
<!-- n47&#45;&gt;n68 -->
<g id="edge26" class="edge">
<title>n47&#45;&gt;n68</title>
<path fill="none" stroke="red" stroke-dasharray="5,2" d="M324.76,-535.47C334.56,-530.33 346.44,-524.1 357.25,-518.43"/>
<polygon fill="red" stroke="red" points="358.61,-521.67 365.84,-513.93 355.36,-515.47 358.61,-521.67"/>
</g>
<!-- n51&#45;&gt;n45 -->
<g id="edge15" class="edge">
<title>n51:n50&#45;&gt;n45</title>
<path fill="none" stroke="#ee4000" d="M490.5,-1281.62C559.25,-1281.62 637.4,-1264.89 685.71,-1252.54"/>
<polygon fill="#ee4000" stroke="#ee4000" points="686.48,-1255.96 695.27,-1250.05 684.71,-1249.19 686.48,-1255.96"/>
</g>
<!-- n52 -->
<g id="node20" class="node">
<title>n52</title>
<ellipse fill="none" stroke="black" cx="472" cy="-547.35" rx="72.83" ry="12.02"/>
<text xml:space="preserve" text-anchor="middle" x="472" y="-544.25" font-family="Helvetica,sans-Serif" font-size="8.00">#vk.7 : coerce[!KU( ~b )]</text>
</g>
<!-- n52&#45;&gt;n68 -->
<g id="edge27" class="edge">
<title>n52&#45;&gt;n68</title>
<path fill="none" stroke="red" stroke-dasharray="5,2" d="M451.24,-535.47C441.44,-530.33 429.56,-524.1 418.75,-518.43"/>
<polygon fill="red" stroke="red" points="420.64,-515.47 410.16,-513.93 417.39,-521.67 420.64,-515.47"/>
</g>
<!-- n56&#45;&gt;n47 -->
<g id="edge16" class="edge">
<title>n56:n55&#45;&gt;n47</title>
<path fill="none" stroke="#ee4000" d="M307.88,-585.37C307.88,-580.64 307.56,-575.58 307.1,-570.77"/>
<polygon fill="#ee4000" stroke="#ee4000" points="310.62,-570.69 305.98,-561.17 303.67,-571.51 310.62,-570.69"/>
</g>
<!-- n57 -->
<g id="node22" class="node">
<title>n57</title>
<ellipse fill="none" stroke="black" cx="844" cy="-1118.56" rx="77.6" ry="12.02"/>
<text xml:space="preserve" text-anchor="middle" x="844" y="-1115.46" font-family="Helvetica,sans-Serif" font-size="8.00">#vk.8 : c_senc[!KU( SE2 )]</text>
</g>
<!-- n57&#45;&gt;n29 -->
<g id="edge28" class="edge">
<title>n57&#45;&gt;n29</title>
<path fill="none" stroke="red" stroke-dasharray="5,2" d="M836.31,-1106.42C820.54,-1083.59 784.35,-1031.18 764.2,-1002"/>
<polygon fill="red" stroke="red" points="767.22,-1000.22 758.66,-993.98 761.46,-1004.19 767.22,-1000.22"/>
</g>
<!-- n61&#45;&gt;n52 -->
<g id="edge17" class="edge">
<title>n61:n60&#45;&gt;n52</title>
<path fill="none" stroke="#ee4000" d="M467.88,-585.37C467.88,-580.64 468.21,-575.58 468.7,-570.77"/>
<polygon fill="#ee4000" stroke="#ee4000" points="472.13,-571.52 469.89,-561.16 465.18,-570.65 472.13,-571.52"/>
</g>
<!-- n62&#45;&gt;n57 -->
<g id="edge29" class="edge">
<title>n62&#45;&gt;n57</title>
<path fill="none" stroke="red" stroke-dasharray="5,2" d="M753.33,-1166.53C770.15,-1157.82 793.84,-1145.55 812.78,-1135.73"/>
<polygon fill="red" stroke="red" points="814.14,-1138.97 821.41,-1131.27 810.92,-1132.76 814.14,-1138.97"/>
</g>
<!-- n62&#45;&gt;n63 -->
<g id="edge30" class="edge">
<title>n62&#45;&gt;n63</title>
<path fill="none" stroke="red" stroke-dasharray="5,2" d="M712.25,-1166.67C696.36,-1157.89 673.8,-1145.42 655.88,-1135.52"/>
<polygon fill="red" stroke="red" points="657.72,-1132.54 647.28,-1130.77 654.34,-1138.67 657.72,-1132.54"/>
</g>
<!-- n64 -->
<g id="node26" class="node">
<title>n64</title>
<ellipse fill="none" stroke="black" cx="535" cy="-980.44" rx="80.79" ry="12.02"/>
<text xml:space="preserve" text-anchor="middle" x="535" y="-977.34" font-family="Helvetica,sans-Serif" font-size="8.00">#vk.10 : c_senc[!KU( SE1 )]</text>
</g>
<!-- n62&#45;&gt;n64 -->
<g id="edge31" class="edge">
<title>n62&#45;&gt;n64</title>
<path fill="none" stroke="red" stroke-dasharray="5,2" d="M735.88,-1166.39C745.2,-1137.29 765.29,-1058.51 727,-1014.46 712.99,-998.34 666.1,-990.09 622.16,-985.87"/>
<polygon fill="red" stroke="red" points="622.56,-982.39 612.29,-984.99 621.94,-989.36 622.56,-982.39"/>
</g>
<!-- n66 -->
<g id="node28" class="node">
<title>n66</title>
<ellipse fill="none" stroke="black" cx="627" cy="-1072.52" rx="88.74" ry="12.02"/>
<text xml:space="preserve" text-anchor="middle" x="627" y="-1069.42" font-family="Helvetica,sans-Serif" font-size="8.00">#vk.12 : coerce[!KU( pk(~ek) )]</text>
</g>
<!-- n63&#45;&gt;n66 -->
<g id="edge18" class="edge">
<title>n63&#45;&gt;n66</title>
<path fill="none" stroke="#ee4000" d="M627,-1106.45C627,-1103.24 627,-1099.62 627,-1095.98"/>
<polygon fill="#ee4000" stroke="#ee4000" points="630.5,-1096.3 627,-1086.3 623.5,-1096.3 630.5,-1096.3"/>
</g>
<!-- n64&#45;&gt;n37 -->
<g id="edge32" class="edge">
<title>n64&#45;&gt;n37</title>
<path fill="none" stroke="red" stroke-dasharray="5,2" d="M517.59,-968.32C509.78,-963.34 500.42,-957.36 491.82,-951.88"/>
<polygon fill="red" stroke="red" points="493.81,-948.99 483.5,-946.56 490.04,-954.89 493.81,-948.99"/>
</g>
<!-- n65 -->
<g id="node27" class="node">
<title>n65</title>
<ellipse fill="none" stroke="black" cx="635" cy="-1026.48" rx="81.32" ry="12.02"/>
<text xml:space="preserve" text-anchor="middle" x="635" y="-1023.38" font-family="Helvetica,sans-Serif" font-size="8.00">#vk.11 : c_aenc[!KU( AE1 )]</text>
</g>
<!-- n65&#45;&gt;n64 -->
<g id="edge33" class="edge">
<title>n65&#45;&gt;n64</title>
<path fill="none" stroke="red" stroke-dasharray="5,2" d="M610.28,-1014.59C598.14,-1009.25 583.3,-1002.71 570.02,-996.86"/>
<polygon fill="red" stroke="red" points="571.73,-993.79 561.17,-992.96 568.91,-1000.2 571.73,-993.79"/>
</g>
<!-- n66&#45;&gt;n65 -->
<g id="edge34" class="edge">
<title>n66&#45;&gt;n65</title>
<path fill="none" stroke="red" stroke-dasharray="5,2" d="M629.02,-1060.41C629.6,-1057.2 630.26,-1053.57 630.92,-1049.94"/>
<polygon fill="red" stroke="red" points="634.34,-1050.7 632.68,-1040.23 627.45,-1049.44 634.34,-1050.7"/>
</g>
<!-- n67 -->
<g id="node29" class="node">
<title>n67</title>
<ellipse fill="none" stroke="black" cx="434" cy="-1026.48" rx="97.76" ry="12.02"/>
<text xml:space="preserve" text-anchor="middle" x="434" y="-1023.38" font-family="Helvetica,sans-Serif" font-size="8.00">#vk.13 : c_confirmTag[!KU( CO1 )]</text>
</g>
<!-- n67&#45;&gt;n64 -->
<g id="edge35" class="edge">
<title>n67&#45;&gt;n64</title>
<path fill="none" stroke="red" stroke-dasharray="5,2" d="M459.23,-1014.48C471.49,-1009.13 486.43,-1002.62 499.8,-996.79"/>
<polygon fill="red" stroke="red" points="500.94,-1000.11 508.71,-992.9 498.14,-993.69 500.94,-1000.11"/>
</g>
<!-- n68&#45;&gt;n38 -->
<g id="edge36" class="edge">
<title>n68&#45;&gt;n38</title>
<path fill="none" stroke="red" stroke-dasharray="5,2" d="M388,-489.2C388,-485.99 388,-482.37 388,-478.73"/>
<polygon fill="red" stroke="red" points="391.5,-479.05 388,-469.05 384.5,-479.05 391.5,-479.05"/>
</g>
<!-- n69 -->
<g id="node31" class="node">
<title>n69</title>
<ellipse fill="none" stroke="gray" cx="434" cy="-1072.52" rx="59.04" ry="12.02"/>
<text xml:space="preserve" text-anchor="middle" x="434" y="-1069.42" font-family="Helvetica,sans-Serif" font-size="8.00">!KU( ss ) @ #vk.17</text>
</g>
<!-- n69&#45;&gt;n22 -->
<g id="edge37" class="edge">
<title>n69&#45;&gt;n22</title>
<path fill="none" stroke="red" stroke-dasharray="5,2" d="M393.65,-1063.38C372.41,-1058.11 346.41,-1050.03 325,-1038.5 240.5,-992.99 219.42,-974.95 159,-900.37 50.93,-766.99 0,-720.03 0,-548.35 0,-548.35 0,-548.35 0,-500.31 0,-434.7 77.13,-396.57 130.13,-378.12"/>
<polygon fill="red" stroke="red" points="131.23,-381.44 139.6,-374.95 129.01,-374.8 131.23,-381.44"/>
</g>
<!-- n69&#45;&gt;n65 -->
<g id="edge38" class="edge">
<title>n69&#45;&gt;n65</title>
<path fill="none" stroke="red" stroke-dasharray="5,2" d="M472.75,-1063.03C503.3,-1056.34 546.26,-1046.92 580.31,-1039.46"/>
<polygon fill="red" stroke="red" points="580.98,-1042.9 590,-1037.34 579.48,-1036.06 580.98,-1042.9"/>
</g>
<!-- n69&#45;&gt;n67 -->
<g id="edge39" class="edge">
<title>n69&#45;&gt;n67</title>
<path fill="none" stroke="red" stroke-dasharray="5,2" d="M434,-1060.41C434,-1057.2 434,-1053.57 434,-1049.94"/>
<polygon fill="red" stroke="red" points="437.5,-1050.26 434,-1040.26 430.5,-1050.26 437.5,-1050.26"/>
</g>
</g>
</svg>
