<?xml version="1.0" encoding="UTF-8" standalone="no"?>
<!DOCTYPE svg PUBLIC "-//W3C//DTD SVG 1.1//EN"
 "http://www.w3.org/Graphics/SVG/1.1/DTD/svg11.dtd">
<!-- Generated by graphviz version 15.1.0 (20260618.0150)
 -->
<!-- Title: trace_DeppisPqEpochNoFold_SL2&#45;AS0&#45;CL0&#45;A1&#45;C1&#45;NB_pq_post_compromise_security&#45;Anchor_step_fold&#45;Send_post_fold&#45;Reveal_root&#45;Reveal_dh&#45;Reveal_dh Pages: 1 -->
<svg width="626pt" height="1055pt"
 viewBox="0.00 0.00 626.00 1055.00" xmlns="http://www.w3.org/2000/svg" xmlns:xlink="http://www.w3.org/1999/xlink">
<g id="graph0" class="graph" transform="scale(1 1) rotate(0) translate(4 1051.33)">
<title>trace_DeppisPqEpochNoFold_SL2&#45;AS0&#45;CL0&#45;A1&#45;C1&#45;NB_pq_post_compromise_security&#45;Anchor_step_fold&#45;Send_post_fold&#45;Reveal_root&#45;Reveal_dh&#45;Reveal_dh</title>
<polygon fill="white" stroke="none" points="-4,4 -4,-1051.33 621.7,-1051.33 621.7,4 -4,4"/>
<!-- n0 -->
<g id="node1" class="node">
<title>n0</title>
<ellipse fill="none" stroke="black" cx="274.62" cy="-123.02" rx="57.45" ry="12.02"/>
<text xml:space="preserve" text-anchor="middle" x="274.62" y="-119.92" font-family="Helvetica,sans-Serif" font-size="8.00">#k : isend[K( ~m )]</text>
</g>
<!-- n68 -->
<g id="node22" class="node">
<title>n68</title>
<text xml:space="preserve" text-anchor="start" x="219" y="-77.25" font-family="Helvetica,sans-Serif" font-size="8.00" fill="#000000">AE1</text>
<text xml:space="preserve" text-anchor="start" x="240.5" y="-77.25" font-family="Helvetica,sans-Serif" font-size="8.00">=</text>
<text xml:space="preserve" text-anchor="start" x="250" y="-77.25" font-family="Helvetica,sans-Serif" font-size="8.00">aenc(~ss, pk(~ek))</text>
<text xml:space="preserve" text-anchor="start" x="219" y="-63.25" font-family="Helvetica,sans-Serif" font-size="8.00" fill="#000000">CO1</text>
<text xml:space="preserve" text-anchor="start" x="240.5" y="-63.25" font-family="Helvetica,sans-Serif" font-size="8.00">=</text>
<text xml:space="preserve" text-anchor="start" x="250" y="-63.25" font-family="Helvetica,sans-Serif" font-size="8.00">confirmTag(~ss, &#39;i&#39;)</text>
<text xml:space="preserve" text-anchor="start" x="219" y="-49.25" font-family="Helvetica,sans-Serif" font-size="8.00" fill="#000000">CO2</text>
<text xml:space="preserve" text-anchor="start" x="240.5" y="-49.25" font-family="Helvetica,sans-Serif" font-size="8.00">=</text>
<text xml:space="preserve" text-anchor="start" x="250" y="-49.25" font-family="Helvetica,sans-Serif" font-size="8.00">confirmTag(~ss, &#39;r&#39;)</text>
<text xml:space="preserve" text-anchor="start" x="219" y="-35.25" font-family="Helvetica,sans-Serif" font-size="8.00" fill="#000000">EX1</text>
<text xml:space="preserve" text-anchor="start" x="240.5" y="-35.25" font-family="Helvetica,sans-Serif" font-size="8.00">=</text>
<text xml:space="preserve" text-anchor="start" x="250" y="-35.25" font-family="Helvetica,sans-Serif" font-size="8.00">&#39;g&#39;^(~a*~b)</text>
<text xml:space="preserve" text-anchor="start" x="219" y="-21.25" font-family="Helvetica,sans-Serif" font-size="8.00" fill="#000000">KD1</text>
<text xml:space="preserve" text-anchor="start" x="240.5" y="-21.25" font-family="Helvetica,sans-Serif" font-size="8.00">=</text>
<text xml:space="preserve" text-anchor="start" x="250" y="-21.25" font-family="Helvetica,sans-Serif" font-size="8.00">kdfRK(~rkc, EX1)</text>
<text xml:space="preserve" text-anchor="start" x="219" y="-7.25" font-family="Helvetica,sans-Serif" font-size="8.00" fill="#000000">SE1</text>
<text xml:space="preserve" text-anchor="start" x="240.5" y="-7.25" font-family="Helvetica,sans-Serif" font-size="8.00">=</text>
<text xml:space="preserve" text-anchor="start" x="250" y="-7.25" font-family="Helvetica,sans-Serif" font-size="8.00">senc(~m, msgK(KD1))</text>
<polygon fill="none" stroke="black" points="214,0 214,-89 335.25,-89 335.25,0 214,0"/>
</g>
<!-- n0&#45;&gt;n68 -->
<!-- n5 -->
<g id="node2" class="node">
<title>n5</title>
<polygon fill="#d5d897" stroke="black" points="0,-479.83 0,-539.83 183.25,-539.83 183.25,-479.83 0,-479.83"/>
<text xml:space="preserve" text-anchor="middle" x="51.5" y="-528.23" font-family="Helvetica,sans-Serif" font-size="8.00">St_Post( KD1 )</text>
<polyline fill="none" stroke="black" points="103,-522.83 103,-539.83"/>
<text xml:space="preserve" text-anchor="middle" x="143" y="-528.23" font-family="Helvetica,sans-Serif" font-size="8.00">Fr( ~m )</text>
<polyline fill="none" stroke="black" points="0,-522.83 183.25,-522.83"/>
<text xml:space="preserve" text-anchor="start" x="8" y="-511.23" font-family="Helvetica,sans-Serif" font-size="8.00">#s : Send_post_fold[PostFoldSend( ~m, KD1 ),</text>
<text xml:space="preserve" text-anchor="start" x="8" y="-502.23" font-family="Helvetica,sans-Serif" font-size="8.00">                    SecretMsg( ~m )]</text>
<polyline fill="none" stroke="black" points="0,-496.83 183.25,-496.83"/>
<text xml:space="preserve" text-anchor="middle" x="91.62" y="-485.23" font-family="Helvetica,sans-Serif" font-size="8.00">Out( SE1 )</text>
</g>
<!-- n7 -->
<g id="node4" class="node">
<title>n7</title>
<ellipse fill="none" stroke="black" cx="195.62" cy="-399.27" rx="34.65" ry="12.02"/>
<text xml:space="preserve" text-anchor="middle" x="195.62" y="-396.17" font-family="Helvetica,sans-Serif" font-size="8.00">#vl : irecv</text>
</g>
<!-- n5&#45;&gt;n7 -->
<g id="edge1" class="edge">
<title>n5:n4&#45;&gt;n7</title>
<path fill="none" stroke="#4d4d4d" d="M91.62,-479.33C91.62,-444.49 129.08,-422.99 159.04,-411.37"/>
<polygon fill="#4d4d4d" stroke="#4d4d4d" points="160.01,-414.74 168.23,-408.05 157.63,-408.16 160.01,-414.74"/>
</g>
<!-- n6 -->
<g id="node3" class="node">
<title>n6</title>
<ellipse fill="none" stroke="black" cx="274.62" cy="-169.06" rx="69.65" ry="12.02"/>
<text xml:space="preserve" text-anchor="middle" x="274.62" y="-165.96" font-family="Helvetica,sans-Serif" font-size="8.00">#vk : coerce[!KU( ~m )]</text>
</g>
<!-- n6&#45;&gt;n0 -->
<g id="edge18" class="edge">
<title>n6&#45;&gt;n0</title>
<path fill="none" stroke="red" stroke-dasharray="5,2" d="M274.62,-156.95C274.62,-153.74 274.62,-150.12 274.62,-146.48"/>
<polygon fill="red" stroke="red" points="278.13,-146.8 274.63,-136.8 271.13,-146.8 278.13,-146.8"/>
</g>
<!-- n54 -->
<g id="node17" class="node">
<title>n54</title>
<ellipse fill="none" stroke="black" cx="274.62" cy="-215.1" rx="52.68" ry="12.02"/>
<text xml:space="preserve" text-anchor="middle" x="274.62" y="-212" font-family="Helvetica,sans-Serif" font-size="8.00">#vr.6 : d_0_sdec</text>
</g>
<!-- n7&#45;&gt;n54 -->
<g id="edge2" class="edge">
<title>n7&#45;&gt;n54</title>
<path fill="none" stroke="#ee4000" d="M199.98,-386.91C209.7,-361.79 234.12,-299.74 257.62,-249.12 259.39,-245.33 261.35,-241.33 263.3,-237.48"/>
<polygon fill="#ee4000" stroke="#ee4000" points="266.38,-239.13 267.88,-228.64 260.17,-235.91 266.38,-239.13"/>
</g>
<!-- n15 -->
<g id="node5" class="node">
<title>n15</title>
<polygon fill="#cdd998" stroke="black" points="158.62,-562.83 158.62,-640.83 404.62,-640.83 404.62,-562.83 158.62,-562.83"/>
<text xml:space="preserve" text-anchor="middle" x="216.88" y="-629.23" font-family="Helvetica,sans-Serif" font-size="8.00">St_Anchor( ~rkc, ~ss )</text>
<polyline fill="none" stroke="black" points="275.12,-623.83 275.12,-640.83"/>
<text xml:space="preserve" text-anchor="middle" x="307.5" y="-629.23" font-family="Helvetica,sans-Serif" font-size="8.00">Fr( ~a )</text>
<polyline fill="none" stroke="black" points="339.88,-623.83 339.88,-640.83"/>
<text xml:space="preserve" text-anchor="middle" x="372.25" y="-629.23" font-family="Helvetica,sans-Serif" font-size="8.00">Fr( ~b )</text>
<polyline fill="none" stroke="black" points="158.62,-623.83 404.62,-623.83"/>
<text xml:space="preserve" text-anchor="start" x="166.62" y="-612.23" font-family="Helvetica,sans-Serif" font-size="8.00">#vr : Anchor_step_fold[AnchorRoot( KD1 ),</text>
<text xml:space="preserve" text-anchor="start" x="166.62" y="-603.23" font-family="Helvetica,sans-Serif" font-size="8.00">                       Fold( KD1, KD1 ),</text>
<text xml:space="preserve" text-anchor="start" x="166.62" y="-594.23" font-family="Helvetica,sans-Serif" font-size="8.00">                       FoldedWith( KD1, ~ss ),</text>
<text xml:space="preserve" text-anchor="start" x="166.62" y="-585.23" font-family="Helvetica,sans-Serif" font-size="8.00">                       Root( KD1 )]</text>
<polyline fill="none" stroke="black" points="158.62,-579.83 404.62,-579.83"/>
<text xml:space="preserve" text-anchor="middle" x="193.62" y="-568.23" font-family="Helvetica,sans-Serif" font-size="8.00">St_Post( KD1 )</text>
<polyline fill="none" stroke="black" points="228.62,-562.83 228.62,-579.83"/>
<text xml:space="preserve" text-anchor="middle" x="272.62" y="-568.23" font-family="Helvetica,sans-Serif" font-size="8.00">!RevealableDh( ~a )</text>
<polyline fill="none" stroke="black" points="316.62,-562.83 316.62,-579.83"/>
<text xml:space="preserve" text-anchor="middle" x="360.62" y="-568.23" font-family="Helvetica,sans-Serif" font-size="8.00">!RevealableDh( ~b )</text>
</g>
<!-- n15&#45;&gt;n5 -->
<g id="edge3" class="edge">
<title>n15:n12&#45;&gt;n5:n1</title>
<path fill="none" stroke="black" stroke-width="2" d="M157.62,-571.33C136.7,-571.33 74.46,-566.67 56.44,-550.11"/>
<polygon fill="black" stroke="black" stroke-width="2" points="60.5,-550.38 52.86,-543.04 54.25,-553.54 60.5,-550.38"/>
</g>
<!-- n62 -->
<g id="node19" class="node">
<title>n62</title>
<polygon fill="#a2dd9b" stroke="black" points="204.88,-484.33 204.88,-535.33 342.38,-535.33 342.38,-484.33 204.88,-484.33"/>
<text xml:space="preserve" text-anchor="middle" x="273.38" y="-523.73" font-family="Helvetica,sans-Serif" font-size="8.00">!RevealableDh( ~a )</text>
<polyline fill="none" stroke="black" points="204.88,-518.33 342.38,-518.33"/>
<text xml:space="preserve" text-anchor="middle" x="273.62" y="-506.73" font-family="Helvetica,sans-Serif" font-size="8.00">#vr.8 : Reveal_dh[RevealDh( ~a )]</text>
<polyline fill="none" stroke="black" points="204.88,-501.33 342.38,-501.33"/>
<text xml:space="preserve" text-anchor="middle" x="273.5" y="-489.73" font-family="Helvetica,sans-Serif" font-size="8.00">Out( ~a )</text>
</g>
<!-- n15&#45;&gt;n62 -->
<g id="edge4" class="edge">
<title>n15:n13&#45;&gt;n62:n59</title>
<path fill="none" stroke="#7f7f7f" stroke-width="2" d="M272.62,-562.33C272.62,-555.65 272.88,-551.87 273.09,-547.63"/>
<polygon fill="#7f7f7f" stroke="#7f7f7f" stroke-width="2" points="276.54,-549.45 273.3,-539.36 269.54,-549.27 276.54,-549.45"/>
</g>
<!-- n66 -->
<g id="node20" class="node">
<title>n66</title>
<polygon fill="#a2dd9b" stroke="black" points="364.88,-484.33 364.88,-535.33 502.38,-535.33 502.38,-484.33 364.88,-484.33"/>
<text xml:space="preserve" text-anchor="middle" x="433.38" y="-523.73" font-family="Helvetica,sans-Serif" font-size="8.00">!RevealableDh( ~b )</text>
<polyline fill="none" stroke="black" points="364.88,-518.33 502.38,-518.33"/>
<text xml:space="preserve" text-anchor="middle" x="433.62" y="-506.73" font-family="Helvetica,sans-Serif" font-size="8.00">#vr.9 : Reveal_dh[RevealDh( ~b )]</text>
<polyline fill="none" stroke="black" points="364.88,-501.33 502.38,-501.33"/>
<text xml:space="preserve" text-anchor="middle" x="433.5" y="-489.73" font-family="Helvetica,sans-Serif" font-size="8.00">Out( ~b )</text>
</g>
<!-- n15&#45;&gt;n66 -->
<g id="edge5" class="edge">
<title>n15:n14&#45;&gt;n66:n63</title>
<path fill="none" stroke="#7f7f7f" stroke-width="2" d="M405.62,-571.33C409.65,-571.33 406.72,-565.77 404.62,-562.33 395.22,-546.89 381.01,-551.68 369.57,-536.69"/>
<polygon fill="#7f7f7f" stroke="#7f7f7f" stroke-width="2" points="373.42,-536.36 365.39,-529.45 367.36,-539.86 373.42,-536.36"/>
</g>
<!-- n16 -->
<g id="node6" class="node">
<title>n16</title>
<ellipse fill="none" stroke="black" cx="367.62" cy="-261.15" rx="99.35" ry="12.02"/>
<text xml:space="preserve" text-anchor="middle" x="367.62" y="-258.05" font-family="Helvetica,sans-Serif" font-size="8.00">#vk.1 : c_msgK[!KU( msgK(KD1) )]</text>
</g>
<!-- n16&#45;&gt;n54 -->
<g id="edge19" class="edge">
<title>n16&#45;&gt;n54</title>
<path fill="none" stroke="red" stroke-dasharray="5,2" d="M344.16,-249.03C332.84,-243.67 319.08,-237.16 306.8,-231.34"/>
<polygon fill="red" stroke="red" points="308.39,-228.22 297.86,-227.11 305.4,-234.55 308.39,-228.22"/>
</g>
<!-- n21 -->
<g id="node7" class="node">
<title>n21</title>
<polygon fill="#c5d998" stroke="black" points="118.38,-663.83 118.38,-732.83 316.88,-732.83 316.88,-663.83 118.38,-663.83"/>
<text xml:space="preserve" text-anchor="middle" x="178.12" y="-721.23" font-family="Helvetica,sans-Serif" font-size="8.00">St_R_Confirming( ~rkc, ~ss )</text>
<polyline fill="none" stroke="black" points="237.88,-715.83 237.88,-732.83"/>
<text xml:space="preserve" text-anchor="middle" x="277.38" y="-721.23" font-family="Helvetica,sans-Serif" font-size="8.00">Auth_TagI( CO1 )</text>
<polyline fill="none" stroke="black" points="118.38,-715.83 316.88,-715.83"/>
<text xml:space="preserve" text-anchor="start" x="126.38" y="-704.23" font-family="Helvetica,sans-Serif" font-size="8.00">#vr.1 : Epoch_commit[Eq( CO1, CO1 ),</text>
<text xml:space="preserve" text-anchor="start" x="126.38" y="-695.23" font-family="Helvetica,sans-Serif" font-size="8.00">                     RConfirmed( ~ss ),</text>
<text xml:space="preserve" text-anchor="start" x="126.38" y="-686.23" font-family="Helvetica,sans-Serif" font-size="8.00">                     Commit( ~ss )]</text>
<polyline fill="none" stroke="black" points="118.38,-680.83 316.88,-680.83"/>
<text xml:space="preserve" text-anchor="middle" x="217.62" y="-669.23" font-family="Helvetica,sans-Serif" font-size="8.00">St_Anchor( ~rkc, ~ss )</text>
</g>
<!-- n21&#45;&gt;n15 -->
<g id="edge6" class="edge">
<title>n21:n20&#45;&gt;n15:n8</title>
<path fill="none" stroke="black" stroke-width="2" d="M317.88,-672.33C321.9,-672.33 319.57,-666.33 316.88,-663.33 289.65,-633.07 231.11,-675.76 219.07,-652.53"/>
<polygon fill="black" stroke="black" stroke-width="2" points="222.82,-653.44 217.46,-644.3 215.95,-654.79 222.82,-653.44"/>
</g>
<!-- n22 -->
<g id="node8" class="node">
<title>n22</title>
<ellipse fill="none" stroke="black" cx="380.62" cy="-307.19" rx="81.85" ry="12.02"/>
<text xml:space="preserve" text-anchor="middle" x="380.62" y="-304.09" font-family="Helvetica,sans-Serif" font-size="8.00">#vk.2 : c_kdfRK[!KU( KD1 )]</text>
</g>
<!-- n22&#45;&gt;n16 -->
<g id="edge20" class="edge">
<title>n22&#45;&gt;n16</title>
<path fill="none" stroke="red" stroke-dasharray="5,2" d="M377.34,-295.07C376.37,-291.76 375.26,-288.01 374.15,-284.25"/>
<polygon fill="red" stroke="red" points="377.57,-283.46 371.38,-274.86 370.85,-285.44 377.57,-283.46"/>
</g>
<!-- n30 -->
<g id="node9" class="node">
<title>n30</title>
<polygon fill="#beda99" stroke="black" points="185,-838.83 185,-889.83 506.25,-889.83 506.25,-838.83 185,-838.83"/>
<text xml:space="preserve" text-anchor="middle" x="280.62" y="-878.23" font-family="Helvetica,sans-Serif" font-size="8.00">Auth_Pub( ~rkc, pk(~ek) )</text>
<polyline fill="none" stroke="black" points="376.25,-872.83 376.25,-889.83"/>
<text xml:space="preserve" text-anchor="middle" x="441.12" y="-878.23" font-family="Helvetica,sans-Serif" font-size="8.00">Fr( ~ss )</text>
<polyline fill="none" stroke="black" points="185,-872.83 506.25,-872.83"/>
<text xml:space="preserve" text-anchor="middle" x="345.38" y="-861.23" font-family="Helvetica,sans-Serif" font-size="8.00">#vr.2 : Epoch_encaps[Encaps( ~ss )]</text>
<polyline fill="none" stroke="black" points="185,-855.83 506.25,-855.83"/>
<text xml:space="preserve" text-anchor="middle" x="244.75" y="-844.23" font-family="Helvetica,sans-Serif" font-size="8.00">St_R_Confirming( ~rkc, ~ss )</text>
<polyline fill="none" stroke="black" points="304.5,-838.83 304.5,-855.83"/>
<text xml:space="preserve" text-anchor="middle" x="350.38" y="-844.23" font-family="Helvetica,sans-Serif" font-size="8.00">Auth_Ct( AE1, CO2 )</text>
<polyline fill="none" stroke="black" points="396.25,-838.83 396.25,-855.83"/>
<text xml:space="preserve" text-anchor="middle" x="423.38" y="-844.23" font-family="Helvetica,sans-Serif" font-size="8.00">Out( AE1 )</text>
<polyline fill="none" stroke="black" points="450.5,-838.83 450.5,-855.83"/>
<text xml:space="preserve" text-anchor="middle" x="478.38" y="-844.23" font-family="Helvetica,sans-Serif" font-size="8.00">Out( CO2 )</text>
</g>
<!-- n30&#45;&gt;n21 -->
<g id="edge7" class="edge">
<title>n30:n26&#45;&gt;n21:n17</title>
<path fill="none" stroke="black" stroke-width="2" d="M184,-847.33C135.87,-847.33 118.04,-766.13 116.24,-735.68"/>
<polygon fill="black" stroke="black" stroke-width="2" points="119.56,-737.64 117.07,-727.34 112.59,-736.95 119.56,-737.64"/>
</g>
<!-- n38 -->
<g id="node11" class="node">
<title>n38</title>
<polygon fill="#b6db99" stroke="black" points="160.12,-755.83 160.12,-815.83 409.12,-815.83 409.12,-755.83 160.12,-755.83"/>
<text xml:space="preserve" text-anchor="middle" x="226.25" y="-804.23" font-family="Helvetica,sans-Serif" font-size="8.00">St_I_PubSent( ~rkc, ~ek )</text>
<polyline fill="none" stroke="black" points="292.38,-798.83 292.38,-815.83"/>
<text xml:space="preserve" text-anchor="middle" x="350.75" y="-804.23" font-family="Helvetica,sans-Serif" font-size="8.00">Auth_Ct( AE1, CO2 )</text>
<polyline fill="none" stroke="black" points="160.12,-798.83 409.12,-798.83"/>
<text xml:space="preserve" text-anchor="start" x="168.12" y="-787.23" font-family="Helvetica,sans-Serif" font-size="8.00">#vr.3 : Epoch_decaps_verify[Eq( CO2, CO2 ),</text>
<text xml:space="preserve" text-anchor="start" x="168.12" y="-778.23" font-family="Helvetica,sans-Serif" font-size="8.00">                            IConfirmed( ~ss )]</text>
<polyline fill="none" stroke="black" points="160.12,-772.83 409.12,-772.83"/>
<text xml:space="preserve" text-anchor="middle" x="217.25" y="-761.23" font-family="Helvetica,sans-Serif" font-size="8.00">St_I_Confirmed( ~rkc, ~ss )</text>
<polyline fill="none" stroke="black" points="274.38,-755.83 274.38,-772.83"/>
<text xml:space="preserve" text-anchor="middle" x="313.88" y="-761.23" font-family="Helvetica,sans-Serif" font-size="8.00">Auth_TagI( CO1 )</text>
<polyline fill="none" stroke="black" points="353.38,-755.83 353.38,-772.83"/>
<text xml:space="preserve" text-anchor="middle" x="381.25" y="-761.23" font-family="Helvetica,sans-Serif" font-size="8.00">Out( CO1 )</text>
</g>
<!-- n30&#45;&gt;n38 -->
<g id="edge8" class="edge">
<title>n30:n27&#45;&gt;n38:n33</title>
<path fill="none" stroke="black" stroke-width="2" d="M350.38,-838.33C350.38,-833.6 350.46,-830.58 350.55,-827.62"/>
<polygon fill="black" stroke="black" stroke-width="2" points="354.02,-829.42 350.7,-819.36 347.02,-829.3 354.02,-829.42"/>
</g>
<!-- n31 -->
<g id="node10" class="node">
<title>n31</title>
<ellipse fill="none" stroke="black" cx="380.62" cy="-353.23" rx="74.95" ry="12.02"/>
<text xml:space="preserve" text-anchor="middle" x="380.62" y="-350.13" font-family="Helvetica,sans-Serif" font-size="8.00">#vk.3 : c_exp[!KU( EX1 )]</text>
</g>
<!-- n31&#45;&gt;n22 -->
<g id="edge21" class="edge">
<title>n31&#45;&gt;n22</title>
<path fill="none" stroke="red" stroke-dasharray="5,2" d="M380.62,-341.12C380.62,-337.91 380.62,-334.28 380.62,-330.64"/>
<polygon fill="red" stroke="red" points="384.13,-330.96 380.63,-320.96 377.13,-330.96 384.13,-330.96"/>
</g>
<!-- n38&#45;&gt;n21 -->
<g id="edge9" class="edge">
<title>n38:n36&#45;&gt;n21:n18</title>
<path fill="none" stroke="black" stroke-width="2" d="M313.88,-755.33C313.88,-741.57 294.61,-746.19 284.07,-742.48"/>
<polygon fill="black" stroke="black" stroke-width="2" points="287.89,-741.78 279.16,-735.78 282.24,-745.91 287.89,-741.78"/>
</g>
<!-- n39 -->
<g id="node12" class="node">
<title>n39</title>
<ellipse fill="none" stroke="black" cx="540.62" cy="-785.83" rx="77.07" ry="12.02"/>
<text xml:space="preserve" text-anchor="middle" x="540.62" y="-782.73" font-family="Helvetica,sans-Serif" font-size="8.00">#vk.4 : coerce[!KU( ~rkc )]</text>
</g>
<!-- n39&#45;&gt;n22 -->
<g id="edge22" class="edge">
<title>n39&#45;&gt;n22</title>
<path fill="none" stroke="red" stroke-dasharray="5,2" d="M540.62,-773.33C540.62,-744.59 540.62,-667.29 540.62,-602.83 540.62,-602.83 540.62,-602.83 540.62,-398.27 540.62,-353.01 491.42,-330.25 447.58,-318.95"/>
<polygon fill="red" stroke="red" points="448.6,-315.59 438.06,-316.67 446.97,-322.4 448.6,-315.59"/>
</g>
<!-- n46 -->
<g id="node13" class="node">
<title>n46</title>
<polygon fill="#b2dc9a" stroke="black" points="118.25,-912.83 118.25,-963.83 401,-963.83 401,-912.83 118.25,-912.83"/>
<text xml:space="preserve" text-anchor="middle" x="193.38" y="-952.23" font-family="Helvetica,sans-Serif" font-size="8.00">St_Pre( ~rkc )</text>
<polyline fill="none" stroke="black" points="268.5,-946.83 268.5,-963.83"/>
<text xml:space="preserve" text-anchor="middle" x="334.75" y="-952.23" font-family="Helvetica,sans-Serif" font-size="8.00">Fr( ~ek )</text>
<polyline fill="none" stroke="black" points="118.25,-946.83 401,-946.83"/>
<text xml:space="preserve" text-anchor="middle" x="259.25" y="-935.23" font-family="Helvetica,sans-Serif" font-size="8.00">#vr.4 : Epoch_pub[EpochPub( ~ek )]</text>
<polyline fill="none" stroke="black" points="118.25,-929.83 401,-929.83"/>
<text xml:space="preserve" text-anchor="middle" x="172.38" y="-918.23" font-family="Helvetica,sans-Serif" font-size="8.00">St_I_PubSent( ~rkc, ~ek )</text>
<polyline fill="none" stroke="black" points="226.5,-912.83 226.5,-929.83"/>
<text xml:space="preserve" text-anchor="middle" x="280.62" y="-918.23" font-family="Helvetica,sans-Serif" font-size="8.00">Auth_Pub( ~rkc, pk(~ek) )</text>
<polyline fill="none" stroke="black" points="334.75,-912.83 334.75,-929.83"/>
<text xml:space="preserve" text-anchor="middle" x="367.88" y="-918.23" font-family="Helvetica,sans-Serif" font-size="8.00">Out( pk(~ek) )</text>
</g>
<!-- n46&#45;&gt;n30 -->
<g id="edge11" class="edge">
<title>n46:n44&#45;&gt;n30:n23</title>
<path fill="none" stroke="black" stroke-width="2" d="M280.62,-912.33C280.62,-907.6 280.62,-904.58 280.62,-901.62"/>
<polygon fill="black" stroke="black" stroke-width="2" points="284.13,-903.36 280.63,-893.36 277.13,-903.36 284.13,-903.36"/>
</g>
<!-- n46&#45;&gt;n38 -->
<g id="edge10" class="edge">
<title>n46:n43&#45;&gt;n38:n32</title>
<path fill="none" stroke="black" stroke-width="2" d="M172.38,-912.33C172.38,-870.07 123.71,-818.99 147.94,-809.05"/>
<polygon fill="black" stroke="black" stroke-width="2" points="146.78,-812.77 156.13,-807.79 145.72,-805.86 146.78,-812.77"/>
</g>
<!-- n47 -->
<g id="node14" class="node">
<title>n47</title>
<ellipse fill="none" stroke="black" cx="265.62" cy="-445.31" rx="72.83" ry="12.02"/>
<text xml:space="preserve" text-anchor="middle" x="265.62" y="-442.21" font-family="Helvetica,sans-Serif" font-size="8.00">#vk.5 : coerce[!KU( ~a )]</text>
</g>
<!-- n67 -->
<g id="node21" class="node">
<title>n67</title>
<ellipse fill="none" stroke="gray" cx="380.62" cy="-399.27" rx="69.65" ry="12.02"/>
<text xml:space="preserve" text-anchor="middle" x="380.62" y="-396.17" font-family="Helvetica,sans-Serif" font-size="8.00">!KU( (~a*~b) ) @ #vk.7</text>
</g>
<!-- n47&#45;&gt;n67 -->
<g id="edge23" class="edge">
<title>n47&#45;&gt;n67</title>
<path fill="none" stroke="red" stroke-dasharray="5,2" d="M293.17,-433.76C307.96,-428.1 326.43,-421.03 342.57,-414.84"/>
<polygon fill="red" stroke="red" points="343.8,-418.12 351.89,-411.27 341.3,-411.58 343.8,-418.12"/>
</g>
<!-- n52 -->
<g id="node15" class="node">
<title>n52</title>
<polygon fill="#aedc9a" stroke="black" points="272.12,-986.83 272.12,-1046.83 439.12,-1046.83 439.12,-986.83 272.12,-986.83"/>
<text xml:space="preserve" text-anchor="middle" x="355.5" y="-1035.23" font-family="Helvetica,sans-Serif" font-size="8.00">Fr( ~rkc )</text>
<polyline fill="none" stroke="black" points="272.12,-1029.83 439.12,-1029.83"/>
<text xml:space="preserve" text-anchor="start" x="280.12" y="-1018.23" font-family="Helvetica,sans-Serif" font-size="8.00">#vr.5 : Live_root[LiveRoot( ~rkc ),</text>
<text xml:space="preserve" text-anchor="start" x="280.12" y="-1009.23" font-family="Helvetica,sans-Serif" font-size="8.00">                  Root( ~rkc )]</text>
<polyline fill="none" stroke="black" points="272.12,-1003.83 439.12,-1003.83"/>
<text xml:space="preserve" text-anchor="middle" x="305.25" y="-992.23" font-family="Helvetica,sans-Serif" font-size="8.00">St_Pre( ~rkc )</text>
<polyline fill="none" stroke="black" points="338.38,-986.83 338.38,-1003.83"/>
<text xml:space="preserve" text-anchor="middle" x="388.75" y="-992.23" font-family="Helvetica,sans-Serif" font-size="8.00">!RevealableRoot( ~rkc )</text>
</g>
<!-- n52&#45;&gt;n46 -->
<g id="edge12" class="edge">
<title>n52:n50&#45;&gt;n46:n40</title>
<path fill="none" stroke="black" stroke-width="2" d="M271.12,-995.33C256.01,-995.33 214.13,-987.15 198.96,-974.1"/>
<polygon fill="black" stroke="black" stroke-width="2" points="202.88,-973.91 194.88,-966.96 196.8,-977.38 202.88,-973.91"/>
</g>
<!-- n58 -->
<g id="node18" class="node">
<title>n58</title>
<polygon fill="#aadc9a" stroke="black" points="422.88,-912.83 422.88,-963.83 578.38,-963.83 578.38,-912.83 422.88,-912.83"/>
<text xml:space="preserve" text-anchor="middle" x="500.25" y="-952.23" font-family="Helvetica,sans-Serif" font-size="8.00">!RevealableRoot( ~rkc )</text>
<polyline fill="none" stroke="black" points="422.88,-946.83 578.38,-946.83"/>
<text xml:space="preserve" text-anchor="middle" x="500.62" y="-935.23" font-family="Helvetica,sans-Serif" font-size="8.00">#vr.7 : Reveal_root[RevealRoot( ~rkc )]</text>
<polyline fill="none" stroke="black" points="422.88,-929.83 578.38,-929.83"/>
<text xml:space="preserve" text-anchor="middle" x="500.5" y="-918.23" font-family="Helvetica,sans-Serif" font-size="8.00">Out( ~rkc )</text>
</g>
<!-- n52&#45;&gt;n58 -->
<g id="edge13" class="edge">
<title>n52:n51&#45;&gt;n58:n55</title>
<path fill="none" stroke="#7f7f7f" stroke-width="2" d="M440.12,-995.33C452.8,-995.33 433.14,-978.51 423.09,-966.69"/>
<polygon fill="#7f7f7f" stroke="#7f7f7f" stroke-width="2" points="426.74,-967.91 422.2,-958.34 419.78,-968.66 426.74,-967.91"/>
</g>
<!-- n53 -->
<g id="node16" class="node">
<title>n53</title>
<ellipse fill="none" stroke="black" cx="433.62" cy="-445.31" rx="72.83" ry="12.02"/>
<text xml:space="preserve" text-anchor="middle" x="433.62" y="-442.21" font-family="Helvetica,sans-Serif" font-size="8.00">#vk.6 : coerce[!KU( ~b )]</text>
</g>
<!-- n53&#45;&gt;n67 -->
<g id="edge24" class="edge">
<title>n53&#45;&gt;n67</title>
<path fill="none" stroke="red" stroke-dasharray="5,2" d="M420.25,-433.2C415.02,-428.85 408.87,-423.74 403,-418.87"/>
<polygon fill="red" stroke="red" points="405.27,-416.2 395.34,-412.5 400.8,-421.58 405.27,-416.2"/>
</g>
<!-- n54&#45;&gt;n6 -->
<g id="edge14" class="edge">
<title>n54&#45;&gt;n6</title>
<path fill="none" stroke="#ee4000" d="M274.62,-202.99C274.62,-199.78 274.62,-196.16 274.62,-192.52"/>
<polygon fill="#ee4000" stroke="#ee4000" points="278.13,-192.84 274.63,-182.84 271.13,-192.84 278.13,-192.84"/>
</g>
<!-- n58&#45;&gt;n39 -->
<g id="edge15" class="edge">
<title>n58:n57&#45;&gt;n39</title>
<path fill="none" stroke="#ee4000" d="M500.5,-912.33C500.5,-899.94 512.35,-901.54 517.62,-890.33 529.95,-864.16 535.81,-831.12 538.5,-809.5"/>
<polygon fill="#ee4000" stroke="#ee4000" points="541.96,-810.06 539.57,-799.74 535,-809.3 541.96,-810.06"/>
</g>
<!-- n62&#45;&gt;n47 -->
<g id="edge16" class="edge">
<title>n62:n61&#45;&gt;n47</title>
<path fill="none" stroke="#ee4000" d="M273.5,-483.33C273.5,-478.52 272.85,-473.43 271.93,-468.61"/>
<polygon fill="#ee4000" stroke="#ee4000" points="275.36,-467.91 269.64,-458.99 268.56,-469.53 275.36,-467.91"/>
</g>
<!-- n66&#45;&gt;n53 -->
<g id="edge17" class="edge">
<title>n66:n65&#45;&gt;n53</title>
<path fill="none" stroke="#ee4000" d="M433.5,-483.33C433.5,-478.62 433.51,-473.58 433.52,-468.77"/>
<polygon fill="#ee4000" stroke="#ee4000" points="437.02,-469.18 433.56,-459.17 430.02,-469.15 437.02,-469.18"/>
</g>
<!-- n67&#45;&gt;n31 -->
<g id="edge25" class="edge">
<title>n67&#45;&gt;n31</title>
<path fill="none" stroke="red" stroke-dasharray="5,2" d="M380.62,-387.16C380.62,-383.95 380.62,-380.33 380.62,-376.69"/>
<polygon fill="red" stroke="red" points="384.13,-377.01 380.63,-367.01 377.13,-377.01 384.13,-377.01"/>
</g>
</g>
</svg>
